<mxfile host="app.diagrams.net" modified="2022-05-20T11:40:45.467Z" agent="5.0 (Windows NT 10.0; Win64; x64) AppleWebKit/537.36 (KHTML, like Gecko) Chrome/101.0.4951.64 Safari/537.36 Edg/101.0.1210.47" etag="gnl9WBbL4kWadczAvAdY" version="18.0.7" type="github">
  <diagram id="OTmEBu6x7IjJCxRgBnXO" name="第 1 页">
    <mxGraphModel dx="706" dy="773" grid="1" gridSize="10" guides="1" tooltips="1" connect="1" arrows="1" fold="1" page="1" pageScale="1" pageWidth="827" pageHeight="1169" math="0" shadow="0">
      <root>
        <mxCell id="0" />
        <mxCell id="1" parent="0" />
        <mxCell id="8c4vrM_0U4HPLwq4d23S-3" value="" style="edgeStyle=orthogonalEdgeStyle;rounded=0;orthogonalLoop=1;jettySize=auto;html=1;" edge="1" parent="1" source="8c4vrM_0U4HPLwq4d23S-1" target="8c4vrM_0U4HPLwq4d23S-2">
          <mxGeometry relative="1" as="geometry" />
        </mxCell>
        <mxCell id="8c4vrM_0U4HPLwq4d23S-1" value="&lt;font style=&quot;font-size: 15px;&quot;&gt;将二维图片变成三维模型&lt;/font&gt;" style="rounded=0;whiteSpace=wrap;html=1;" vertex="1" parent="1">
          <mxGeometry x="70" y="270" width="120" height="60" as="geometry" />
        </mxCell>
        <mxCell id="8c4vrM_0U4HPLwq4d23S-5" value="" style="edgeStyle=orthogonalEdgeStyle;rounded=0;orthogonalLoop=1;jettySize=auto;html=1;fontSize=15;" edge="1" parent="1" source="8c4vrM_0U4HPLwq4d23S-2" target="8c4vrM_0U4HPLwq4d23S-4">
          <mxGeometry relative="1" as="geometry" />
        </mxCell>
        <mxCell id="8c4vrM_0U4HPLwq4d23S-2" value="&lt;font style=&quot;font-size: 15px;&quot;&gt;每个房间创建群组并命名&lt;/font&gt;" style="rounded=0;whiteSpace=wrap;html=1;" vertex="1" parent="1">
          <mxGeometry x="220" y="270" width="120" height="60" as="geometry" />
        </mxCell>
        <mxCell id="8c4vrM_0U4HPLwq4d23S-7" value="" style="edgeStyle=orthogonalEdgeStyle;rounded=0;orthogonalLoop=1;jettySize=auto;html=1;fontSize=15;" edge="1" parent="1" source="8c4vrM_0U4HPLwq4d23S-4" target="8c4vrM_0U4HPLwq4d23S-6">
          <mxGeometry relative="1" as="geometry" />
        </mxCell>
        <mxCell id="8c4vrM_0U4HPLwq4d23S-4" value="&lt;font style=&quot;font-size: 15px;&quot;&gt;纹理贴图&lt;/font&gt;" style="rounded=0;whiteSpace=wrap;html=1;" vertex="1" parent="1">
          <mxGeometry x="370" y="270" width="120" height="60" as="geometry" />
        </mxCell>
        <mxCell id="8c4vrM_0U4HPLwq4d23S-6" value="&lt;font style=&quot;font-size: 15px;&quot;&gt;模型移至坐标系中心&lt;/font&gt;" style="rounded=0;whiteSpace=wrap;html=1;" vertex="1" parent="1">
          <mxGeometry x="520" y="270" width="120" height="60" as="geometry" />
        </mxCell>
      </root>
    </mxGraphModel>
  </diagram>
</mxfile>
